<?xml version="1.0" encoding="UTF-8" standalone="no"?>
<svg
   width="491.83386"
   height="376.22089"
   viewBox="0 0 491.83386 376.2209"
   version="1.1"
   id="svg3"
   xml:space="preserve"
   xmlns="http://www.w3.org/2000/svg"
   xmlns:svg="http://www.w3.org/2000/svg"><defs
     id="defs1"><style
       id="style1">.a,.b,.c{fill:#2bb673;stroke:#3d3d3d;stroke-linecap:round;stroke-linejoin:round;stroke-width:15px;fill-rule:evenodd;}.a{fill-opacity:0.2;}.b{fill-opacity:0.6;}</style></defs><title
     id="title1">Hermes Full Color Logo</title><g
     id="g4"
     transform="matrix(17.28445,0,0,17.28445,198.77118,177.26142)"
     style="display:inline"><circle
       fill="#61dafb"
       r="2.05"
       id="circle1"
       cx="0"
       cy="0" /><g
       fill="none"
       stroke="#61dafb"
       id="g3"><ellipse
         rx="11"
         ry="4.1999998"
         id="ellipse1"
         cx="0"
         cy="0" /><ellipse
         rx="11"
         ry="4.1999998"
         transform="rotate(60)"
         id="ellipse2"
         cx="0"
         cy="0" /><ellipse
         rx="11"
         ry="4.1999998"
         transform="rotate(120)"
         id="ellipse3"
         cx="0"
         cy="0" /></g></g><g
     id="g5"
     transform="matrix(0.59487492,0,0,0.59487492,198.70216,151.6318)"><path
       class="a"
       d="m 247.21,353.68 4.7,-20.53 c 2,-8.54 3.79,-25.32 4.85,-33.12 -11.36,-4.63 -26.7,-2 -46.61,-4.25 a 80.64,80.64 0 0 1 -41.3,-17.59 v 2.84 a 81.36,81.36 0 0 0 71.7,71.97 z"
       transform="translate(-100.62,-161.23)"
       id="path1" /><path
       class="b"
       d="m 179.85,240.67 a 81,81 0 0 1 -41.52,-17.21 v 0.07 A 81.38,81.38 0 0 0 210,295.47 l 48.79,3.66 c 2.38,-29.75 -11.42,-50.87 -78.94,-58.46 z"
       transform="translate(-100.62,-161.23)"
       id="path2" /><path
       class="c"
       d="m 563.07,168.85 h -50.72 a 30.56,30.56 0 0 0 -29.92,24.31 l -19.69,96.09 a 13.92,13.92 0 0 1 -13.59,11.11 l -76.35,0.22 a 13.9,13.9 0 0 1 -13.66,-16.74 v 0 C 371.53,224.48 327.79,168.73 243.33,168.73 H 108.12 a 81.4,81.4 0 0 0 71.73,71.94 c 89.19,10 82.24,46.07 72.06,90.48 l -39.45,172.24 a 22.79,22.79 0 0 0 22.22,27.88 h 47.95 A 30.55,30.55 0 0 0 312.54,507 l 20.72,-98.62 a 13.91,13.91 0 0 1 13.57,-11 l 76.83,-0.22 a 13.91,13.91 0 0 1 13.66,16.72 l -18.4,89.1 a 22.8,22.8 0 0 0 22.22,27.89 h 50.73 a 30.57,30.57 0 0 0 29.91,-24.32 l 63.51,-309.73 a 22.79,22.79 0 0 0 -22.22,-27.97 z"
       id="path3"
       transform="translate(-100.62,-161.23)" /></g></svg>
